<svg width="564" height="152" viewBox="0 0 564 152" fill="none" xmlns="http://www.w3.org/2000/svg">
<rect x="0.338867" y="0.623047" width="151.251" height="151.251" rx="75.6255" fill="#54BF43"/>
<rect width="24.8028" height="76.1802" rx="12.4014" transform="matrix(-0.959816 0.280631 0.280631 0.959816 102.848 33.0381)" fill="white"/>
<rect x="52.7324" y="25.4189" width="26.2597" height="92.1249" rx="13.1299" transform="rotate(17.4321 52.7324 25.4189)" fill="white"/>
<path d="M548.1 136.97V13.4971H563.661V136.97H548.1Z" fill="white"/>
<path d="M484.507 139C475.711 139 467.931 137.027 461.165 133.08C454.399 129.021 449.043 123.608 445.097 116.842C441.15 109.964 439.177 102.296 439.177 93.8393C439.177 85.3823 441.15 77.7709 445.097 71.0053C449.043 64.1269 454.399 58.7144 461.165 54.7678C467.931 50.7084 475.711 48.6787 484.507 48.6787C493.302 48.6787 501.082 50.7084 507.848 54.7678C514.726 58.7144 520.082 64.0705 523.916 70.8362C527.863 77.6018 529.836 85.2695 529.836 93.8393C529.836 102.296 527.863 109.964 523.916 116.842C520.082 123.608 514.726 129.021 507.848 133.08C501.082 137.027 493.302 139 484.507 139ZM484.507 125.638C490.483 125.638 495.67 124.228 500.067 121.409C504.465 118.59 507.904 114.813 510.385 110.077C512.866 105.228 514.106 99.8156 514.106 93.8393C514.106 87.863 512.866 82.5069 510.385 77.7709C507.904 72.9222 504.465 69.0884 500.067 66.2694C495.67 63.4503 490.483 62.0408 484.507 62.0408C478.643 62.0408 473.456 63.4503 468.946 66.2694C464.548 69.0884 461.109 72.9222 458.628 77.7709C456.147 82.5069 454.907 87.863 454.907 93.8393C454.907 99.8156 456.147 105.228 458.628 110.077C461.109 114.813 464.548 118.59 468.946 121.409C473.456 124.228 478.643 125.638 484.507 125.638Z" fill="white"/>
<path d="M388.937 136.97V75.2334C388.937 67.5657 391.079 61.5894 395.364 57.3045C399.762 52.9068 405.795 50.708 413.462 50.708H431.222V64.0701H416.338C412.617 64.0701 409.685 65.1414 407.543 67.2838C405.513 69.4263 404.498 72.4144 404.498 76.2483V136.97H388.937Z" fill="white"/>
<path d="M317.648 139C309.303 139 302.087 137.027 295.997 133.08C289.908 129.021 285.229 123.552 281.959 116.673C278.689 109.795 277.054 102.184 277.054 93.8393C277.054 85.3823 278.858 77.7709 282.466 71.0053C286.075 64.1269 291.262 58.7144 298.027 54.7678C304.793 50.7084 312.912 48.6787 322.383 48.6787C331.517 48.6787 339.354 50.652 345.894 54.5986C352.434 58.5453 357.452 63.9014 360.948 70.667C364.556 77.4327 366.36 84.9876 366.36 93.3319V136.97H350.63V119.38H350.292C348.6 122.65 346.289 125.807 343.357 128.851C340.538 131.783 336.986 134.208 332.701 136.125C328.416 138.041 323.398 139 317.648 139ZM321.707 125.638C327.345 125.638 332.306 124.285 336.591 121.578C340.989 118.759 344.372 114.926 346.74 110.077C349.22 105.115 350.461 99.5901 350.461 93.501C350.461 87.5247 349.277 82.1686 346.909 77.4327C344.654 72.6967 341.384 68.9756 337.099 66.2694C332.814 63.4503 327.796 62.0408 322.045 62.0408C315.956 62.0408 310.713 63.4503 306.315 66.2694C302.03 69.0884 298.704 72.9222 296.336 77.7709C294.081 82.5069 292.953 87.9194 292.953 94.0085C292.953 99.872 294.081 105.228 296.336 110.077C298.591 114.813 301.861 118.59 306.146 121.409C310.431 124.228 315.618 125.638 321.707 125.638Z" fill="white"/>
<path d="M195.59 136.969V49.354C195.59 43.3776 196.887 38.0779 199.481 33.4547C202.187 28.8315 205.852 25.2232 210.475 22.6297C215.211 19.9234 220.51 18.5703 226.374 18.5703H268.49V32.9473H228.235C223.273 32.9473 219.27 34.5259 216.226 37.6832C213.294 40.7278 211.828 44.618 211.828 49.354V73.372H262.232V87.7489H211.828V136.969H195.59Z" fill="white"/>
</svg>
