<svg width="130" height="36" viewBox="0 0 130 36" fill="none" xmlns="http://www.w3.org/2000/svg">
<rect y="0.296629" width="34.9048" height="34.9048" rx="17.4524" fill="#54BF43"/>
<rect width="5.72385" height="17.5804" rx="2.86192" transform="matrix(-0.959816 0.280631 0.280631 0.959816 23.6562 7.77687)" fill="white"/>
<rect x="12.0911" y="6.01871" width="6.06007" height="21.26" rx="3.03003" transform="rotate(17.4321 12.0911 6.01871)" fill="white"/>
<path d="M126.409 31.762V3.26766H130V31.762H126.409Z" fill="#253228"/>
<path d="M111.733 32.2304C109.703 32.2304 107.908 31.775 106.347 30.8642C104.785 29.9274 103.549 28.6783 102.638 27.117C101.728 25.5297 101.272 23.7601 101.272 21.8085C101.272 19.8568 101.728 18.1003 102.638 16.539C103.549 14.9516 104.785 13.7026 106.347 12.7918C107.908 11.855 109.703 11.3866 111.733 11.3866C113.763 11.3866 115.558 11.855 117.12 12.7918C118.707 13.7026 119.943 14.9386 120.828 16.4999C121.739 18.0613 122.194 19.8308 122.194 21.8085C122.194 23.7601 121.739 25.5297 120.828 27.117C119.943 28.6783 118.707 29.9274 117.12 30.8642C115.558 31.775 113.763 32.2304 111.733 32.2304ZM111.733 29.1467C113.112 29.1467 114.309 28.8215 115.324 28.1709C116.339 27.5204 117.133 26.6486 117.705 25.5557C118.278 24.4367 118.564 23.1877 118.564 21.8085C118.564 20.4293 118.278 19.1932 117.705 18.1003C117.133 16.9814 116.339 16.0966 115.324 15.446C114.309 14.7955 113.112 14.4702 111.733 14.4702C110.38 14.4702 109.183 14.7955 108.142 15.446C107.127 16.0966 106.334 16.9814 105.761 18.1003C105.189 19.1932 104.902 20.4293 104.902 21.8085C104.902 23.1877 105.189 24.4367 105.761 25.5557C106.334 26.6486 107.127 27.5204 108.142 28.1709C109.183 28.8215 110.38 29.1467 111.733 29.1467Z" fill="#253228"/>
<path d="M89.6782 31.762V17.5148C89.6782 15.7453 90.1726 14.3661 91.1615 13.3773C92.1764 12.3624 93.5685 11.855 95.3381 11.855H99.4366V14.9386H96.0016C95.1429 14.9386 94.4663 15.1858 93.9719 15.6803C93.5035 16.1747 93.2693 16.8643 93.2693 17.749V31.762H89.6782Z" fill="#253228"/>
<path d="M73.2264 32.2304C71.3008 32.2304 69.6353 31.775 68.2301 30.8642C66.8249 29.9274 65.745 28.6653 64.9904 27.078C64.2357 25.4906 63.8584 23.7341 63.8584 21.8085C63.8584 19.8568 64.2748 18.1003 65.1075 16.539C65.9402 14.9516 67.1372 13.7026 68.6985 12.7918C70.2599 11.855 72.1335 11.3866 74.3193 11.3866C76.4271 11.3866 78.2357 11.842 79.745 12.7528C81.2542 13.6635 82.4122 14.8996 83.2189 16.4609C84.0516 18.0222 84.468 19.7657 84.468 21.6914V31.762H80.8379V27.7025H80.7598C80.3695 28.4572 79.836 29.1858 79.1595 29.8884C78.5089 30.565 77.6892 31.1244 76.7004 31.5668C75.7115 32.0092 74.5535 32.2304 73.2264 32.2304ZM74.1632 29.1467C75.4643 29.1467 76.6093 28.8345 77.5981 28.2099C78.613 27.5594 79.3937 26.6746 79.9401 25.5557C80.5126 24.4107 80.7989 23.1356 80.7989 21.7304C80.7989 20.3512 80.5256 19.1152 79.9792 18.0222C79.4587 16.9293 78.7041 16.0706 77.7152 15.446C76.7264 14.7955 75.5684 14.4702 74.2413 14.4702C72.8361 14.4702 71.626 14.7955 70.6112 15.446C69.6223 16.0966 68.8547 16.9814 68.3082 18.1003C67.7878 19.1932 67.5275 20.4423 67.5275 21.8475C67.5275 23.2007 67.7878 24.4367 68.3082 25.5557C68.8286 26.6486 69.5833 27.5204 70.5721 28.1709C71.561 28.8215 72.758 29.1467 74.1632 29.1467Z" fill="#253228"/>
<path d="M45.0588 31.762V11.5427C45.0588 10.1635 45.3581 8.9405 45.9566 7.87359C46.5811 6.80668 47.4269 5.97397 48.4938 5.37545C49.5867 4.75092 50.8097 4.43866 52.1629 4.43866H61.8822V7.75649H52.5923C51.4473 7.75649 50.5235 8.1208 49.8209 8.84942C49.1443 9.55202 48.806 10.4498 48.806 11.5427V17.0854H60.438V20.4033H48.806V31.762H45.0588Z" fill="#253228"/>
</svg>
